<svg width="100" height="100" viewBox="0 0 100 100" fill="none" xmlns="http://www.w3.org/2000/svg">
<path d="M49.9999 16.667C31.5901 16.667 16.6665 31.5906 16.6665 50.0004C16.6665 68.4101 31.5901 83.3337 49.9999 83.3337C68.4096 83.3337 83.3333 68.4101 83.3333 50.0004C83.3333 31.5906 68.4096 16.667 49.9999 16.667ZM49.9999 27.7781C62.2735 27.7781 72.2221 37.7267 72.2221 50.0004C72.2221 60.1173 65.4559 68.6395 56.2065 71.3274C55.8312 70.977 55.4744 70.4777 55.4903 69.8409C55.5278 68.3798 55.4903 64.9712 55.4903 63.7184C55.4903 61.5684 54.1286 60.0427 54.1286 60.0427C54.1286 60.0427 64.7975 60.1617 64.7975 48.777C64.7975 44.3853 62.5053 42.0984 62.5053 42.0984C62.5053 42.0984 63.7112 37.4086 62.0876 35.4198C60.2681 35.2225 57.0095 37.1577 55.6178 38.0619C55.6178 38.0619 53.413 37.1586 49.7449 37.1586C46.0768 37.1586 43.8719 38.0619 43.8719 38.0619C42.4817 37.1577 39.2217 35.2239 37.4022 35.4198C35.7786 37.4086 36.9845 42.0984 36.9845 42.0984C36.9845 42.0984 34.6868 44.3839 34.6868 48.777C34.6868 60.1617 45.3558 60.0427 45.3558 60.0427C45.3558 60.0427 44.1418 61.4264 44.0184 63.4064C43.3055 63.6579 42.3335 63.9571 41.4061 63.9571C39.17 63.9571 37.4697 61.7834 36.8461 60.7779C36.2308 59.7862 34.9693 58.9549 33.7943 58.9549C33.0207 58.9549 32.6442 59.3434 32.6442 59.785C32.6442 60.2267 33.7301 60.5362 34.4454 61.3557C35.9551 63.0848 35.9253 66.9709 41.3031 66.9709C41.9395 66.9709 43.0847 66.8274 43.9967 66.7024C43.9917 67.9228 43.9775 69.0912 43.9967 69.8409C44.0112 70.4176 43.7178 70.8783 43.3837 71.2217C34.3417 68.4057 27.7776 59.9697 27.7776 50.0004C27.7776 37.7268 37.7263 27.7781 49.9999 27.7781Z" fill="white"/>
</svg>
