<svg width="685" height="170" viewBox="0 0 685 170" fill="none" xmlns="http://www.w3.org/2000/svg">
<path d="M3.625 1.5H22.375V76.5H61.375V92H3.625V1.5ZM92.25 92H73.5V1.5H92.25V92ZM107.5 1.5H126.25V41.625H127.5L160.375 1.5H183L149.25 42L183.375 92H160.875L135.75 54.625L126.25 66.125V92H107.5V1.5ZM192.375 1.5H253.125V17H211.125V39H250V54.5H211.125V76.5H253.25V92H192.375V1.5ZM267.75 1.5H286.5V76.5H325.5V92H267.75V1.5ZM356.375 92H337.625V1.5H356.375V92ZM454.5 46.75C454.5 56.3333 452.667 64.6458 449 71.6875C445.333 78.6875 440.292 84.0417 433.875 87.75C427.5 91.4167 420.292 93.25 412.25 93.25C404.167 93.25 396.917 91.3958 390.5 87.6875C384.083 83.9792 379.042 78.625 375.375 71.625C371.708 64.5833 369.875 56.2917 369.875 46.75C369.875 37.1667 371.708 28.875 375.375 21.875C379.042 14.8333 384.083 9.47917 390.5 5.8125C396.917 2.10417 404.167 0.25 412.25 0.25C420.292 0.25 427.5 2.10417 433.875 5.8125C440.292 9.47917 445.333 14.8333 449 21.875C452.667 28.875 454.5 37.1667 454.5 46.75ZM435.375 46.75C435.375 40.375 434.417 34.9583 432.5 30.5C430.625 26.0417 427.958 22.6667 424.5 20.375C421.042 18.0417 416.958 16.875 412.25 16.875C407.542 16.875 403.438 18.0417 399.938 20.375C396.479 22.6667 393.792 26.0625 391.875 30.5625C389.958 35.0208 389 40.4167 389 46.75C389 53.0833 389.958 58.5 391.875 63C393.792 67.4583 396.479 70.8542 399.938 73.1875C403.438 75.4792 407.542 76.625 412.25 76.625C416.958 76.625 421.042 75.4792 424.5 73.1875C427.958 70.8542 430.625 67.4583 432.5 63C434.417 58.5417 435.375 53.125 435.375 46.75ZM543.5 92H527.25L487.5 34.5H486.75V92H468V1.5H484.5L524 59H524.875V1.5H543.5V92Z" fill="white"/>
<path d="M9.02273 122.455V169H0.590909V122.455H9.02273ZM26.017 148.545V169H17.7898V134.091H25.6534V140.023H26.0625C26.8655 138.068 28.1458 136.515 29.9034 135.364C31.6761 134.212 33.8655 133.636 36.4716 133.636C38.8807 133.636 40.9792 134.152 42.767 135.182C44.5701 136.212 45.964 137.705 46.9489 139.659C47.9489 141.614 48.4413 143.985 48.4261 146.773V169H40.1989V148.045C40.1989 145.712 39.5928 143.886 38.3807 142.568C37.1837 141.25 35.5246 140.591 33.4034 140.591C31.964 140.591 30.6837 140.909 29.5625 141.545C28.4564 142.167 27.5852 143.068 26.9489 144.25C26.3277 145.432 26.017 146.864 26.017 148.545ZM72.017 169.682C68.5322 169.682 65.5398 168.917 63.0398 167.386C60.5549 165.856 58.6383 163.742 57.2898 161.045C55.9564 158.333 55.2898 155.212 55.2898 151.682C55.2898 148.136 55.9716 145.008 57.3352 142.295C58.6989 139.568 60.6231 137.447 63.108 135.932C65.608 134.402 68.5625 133.636 71.9716 133.636C74.8049 133.636 77.3125 134.159 79.4943 135.205C81.6913 136.235 83.4413 137.697 84.7443 139.591C86.0473 141.47 86.7898 143.667 86.9716 146.182H79.108C78.7898 144.5 78.0322 143.098 76.8352 141.977C75.6534 140.841 74.0701 140.273 72.0852 140.273C70.4034 140.273 68.9261 140.727 67.6534 141.636C66.3807 142.53 65.3883 143.818 64.6761 145.5C63.9792 147.182 63.6307 149.197 63.6307 151.545C63.6307 153.924 63.9792 155.97 64.6761 157.682C65.3731 159.379 66.3504 160.689 67.608 161.614C68.8807 162.523 70.3731 162.977 72.0852 162.977C73.2973 162.977 74.3807 162.75 75.3352 162.295C76.3049 161.826 77.1155 161.152 77.767 160.273C78.4186 159.394 78.8655 158.326 79.108 157.068H86.9716C86.7746 159.538 86.0473 161.727 84.7898 163.636C83.5322 165.53 81.8201 167.015 79.6534 168.091C77.4867 169.152 74.9413 169.682 72.017 169.682ZM101.955 148.545V169H93.7273V122.455H101.773V140.023H102.182C103 138.053 104.265 136.5 105.977 135.364C107.705 134.212 109.902 133.636 112.568 133.636C114.992 133.636 117.106 134.144 118.909 135.159C120.712 136.174 122.106 137.659 123.091 139.614C124.091 141.568 124.591 143.955 124.591 146.773V169H116.364V148.045C116.364 145.697 115.758 143.871 114.545 142.568C113.348 141.25 111.667 140.591 109.5 140.591C108.045 140.591 106.742 140.909 105.591 141.545C104.455 142.167 103.561 143.068 102.909 144.25C102.273 145.432 101.955 146.864 101.955 148.545ZM148.432 169.682C144.932 169.682 141.909 168.955 139.364 167.5C136.833 166.03 134.886 163.955 133.523 161.273C132.159 158.576 131.477 155.402 131.477 151.75C131.477 148.159 132.159 145.008 133.523 142.295C134.902 139.568 136.826 137.447 139.295 135.932C141.765 134.402 144.667 133.636 148 133.636C150.152 133.636 152.182 133.985 154.091 134.682C156.015 135.364 157.712 136.424 159.182 137.864C160.667 139.303 161.833 141.136 162.682 143.364C163.53 145.576 163.955 148.212 163.955 151.273V153.795H135.341V148.25H156.068C156.053 146.674 155.712 145.273 155.045 144.045C154.379 142.803 153.447 141.826 152.25 141.114C151.068 140.402 149.689 140.045 148.114 140.045C146.432 140.045 144.955 140.455 143.682 141.273C142.409 142.076 141.417 143.136 140.705 144.455C140.008 145.758 139.652 147.189 139.636 148.75V153.591C139.636 155.621 140.008 157.364 140.75 158.818C141.492 160.258 142.53 161.364 143.864 162.136C145.197 162.894 146.758 163.273 148.545 163.273C149.742 163.273 150.826 163.106 151.795 162.773C152.765 162.424 153.606 161.917 154.318 161.25C155.03 160.583 155.568 159.758 155.932 158.773L163.614 159.636C163.129 161.667 162.205 163.439 160.841 164.955C159.492 166.455 157.765 167.621 155.659 168.455C153.553 169.273 151.144 169.682 148.432 169.682ZM186.142 169.682C182.733 169.682 179.778 168.932 177.278 167.432C174.778 165.932 172.839 163.833 171.46 161.136C170.097 158.439 169.415 155.288 169.415 151.682C169.415 148.076 170.097 144.917 171.46 142.205C172.839 139.492 174.778 137.386 177.278 135.886C179.778 134.386 182.733 133.636 186.142 133.636C189.551 133.636 192.506 134.386 195.006 135.886C197.506 137.386 199.438 139.492 200.801 142.205C202.18 144.917 202.869 148.076 202.869 151.682C202.869 155.288 202.18 158.439 200.801 161.136C199.438 163.833 197.506 165.932 195.006 167.432C192.506 168.932 189.551 169.682 186.142 169.682ZM186.188 163.091C188.036 163.091 189.581 162.583 190.824 161.568C192.066 160.538 192.991 159.159 193.597 157.432C194.218 155.705 194.528 153.78 194.528 151.659C194.528 149.523 194.218 147.591 193.597 145.864C192.991 144.121 192.066 142.735 190.824 141.705C189.581 140.674 188.036 140.159 186.188 140.159C184.294 140.159 182.718 140.674 181.46 141.705C180.218 142.735 179.286 144.121 178.665 145.864C178.059 147.591 177.756 149.523 177.756 151.659C177.756 153.78 178.059 155.705 178.665 157.432C179.286 159.159 180.218 160.538 181.46 161.568C182.718 162.583 184.294 163.091 186.188 163.091ZM218.08 148.545V169H209.852V134.091H217.716V140.023H218.125C218.928 138.068 220.208 136.515 221.966 135.364C223.739 134.212 225.928 133.636 228.534 133.636C230.943 133.636 233.042 134.152 234.83 135.182C236.633 136.212 238.027 137.705 239.011 139.659C240.011 141.614 240.504 143.985 240.489 146.773V169H232.261V148.045C232.261 145.712 231.655 143.886 230.443 142.568C229.246 141.25 227.587 140.591 225.466 140.591C224.027 140.591 222.746 140.909 221.625 141.545C220.519 142.167 219.648 143.068 219.011 144.25C218.39 145.432 218.08 146.864 218.08 148.545ZM303.341 122.455V169H295.841L273.909 137.295H273.523V169H265.091V122.455H272.636L294.545 154.182H294.955V122.455H303.341ZM322.21 169.705C319.998 169.705 318.006 169.311 316.233 168.523C314.475 167.72 313.081 166.538 312.051 164.977C311.036 163.417 310.528 161.492 310.528 159.205C310.528 157.235 310.892 155.606 311.619 154.318C312.347 153.03 313.339 152 314.597 151.227C315.854 150.455 317.271 149.871 318.847 149.477C320.438 149.068 322.081 148.773 323.778 148.591C325.824 148.379 327.483 148.189 328.756 148.023C330.028 147.841 330.953 147.568 331.528 147.205C332.119 146.826 332.415 146.242 332.415 145.455V145.318C332.415 143.606 331.907 142.28 330.892 141.341C329.877 140.402 328.415 139.932 326.506 139.932C324.491 139.932 322.892 140.371 321.71 141.25C320.544 142.129 319.756 143.167 319.347 144.364L311.665 143.273C312.271 141.152 313.271 139.379 314.665 137.955C316.059 136.515 317.763 135.439 319.778 134.727C321.794 134 324.021 133.636 326.46 133.636C328.142 133.636 329.816 133.833 331.483 134.227C333.15 134.621 334.672 135.273 336.051 136.182C337.43 137.076 338.536 138.295 339.369 139.841C340.218 141.386 340.642 143.318 340.642 145.636V169H332.733V164.205H332.46C331.96 165.174 331.256 166.083 330.347 166.932C329.453 167.765 328.324 168.439 326.96 168.955C325.612 169.455 324.028 169.705 322.21 169.705ZM324.347 163.659C325.998 163.659 327.43 163.333 328.642 162.682C329.854 162.015 330.786 161.136 331.438 160.045C332.104 158.955 332.438 157.765 332.438 156.477V152.364C332.18 152.576 331.741 152.773 331.119 152.955C330.513 153.136 329.831 153.295 329.074 153.432C328.316 153.568 327.566 153.689 326.824 153.795C326.081 153.902 325.438 153.992 324.892 154.068C323.665 154.235 322.566 154.508 321.597 154.886C320.627 155.265 319.862 155.795 319.301 156.477C318.741 157.144 318.46 158.008 318.46 159.068C318.46 160.583 319.013 161.727 320.119 162.5C321.225 163.273 322.634 163.659 324.347 163.659ZM366.347 134.091V140.455H346.278V134.091H366.347ZM351.233 125.727H359.46V158.5C359.46 159.606 359.627 160.455 359.96 161.045C360.309 161.621 360.763 162.015 361.324 162.227C361.884 162.439 362.506 162.545 363.188 162.545C363.703 162.545 364.172 162.508 364.597 162.432C365.036 162.356 365.369 162.288 365.597 162.227L366.983 168.659C366.544 168.811 365.915 168.977 365.097 169.159C364.294 169.341 363.309 169.447 362.142 169.477C360.081 169.538 358.225 169.227 356.574 168.545C354.922 167.848 353.612 166.773 352.642 165.318C351.688 163.864 351.218 162.045 351.233 159.864V125.727ZM373.227 169V134.091H381.455V169H373.227ZM377.364 129.136C376.061 129.136 374.939 128.705 374 127.841C373.061 126.962 372.591 125.909 372.591 124.682C372.591 123.439 373.061 122.386 374 121.523C374.939 120.644 376.061 120.205 377.364 120.205C378.682 120.205 379.803 120.644 380.727 121.523C381.667 122.386 382.136 123.439 382.136 124.682C382.136 125.909 381.667 126.962 380.727 127.841C379.803 128.705 378.682 129.136 377.364 129.136ZM405.142 169.682C401.733 169.682 398.778 168.932 396.278 167.432C393.778 165.932 391.839 163.833 390.46 161.136C389.097 158.439 388.415 155.288 388.415 151.682C388.415 148.076 389.097 144.917 390.46 142.205C391.839 139.492 393.778 137.386 396.278 135.886C398.778 134.386 401.733 133.636 405.142 133.636C408.551 133.636 411.506 134.386 414.006 135.886C416.506 137.386 418.438 139.492 419.801 142.205C421.18 144.917 421.869 148.076 421.869 151.682C421.869 155.288 421.18 158.439 419.801 161.136C418.438 163.833 416.506 165.932 414.006 167.432C411.506 168.932 408.551 169.682 405.142 169.682ZM405.188 163.091C407.036 163.091 408.581 162.583 409.824 161.568C411.066 160.538 411.991 159.159 412.597 157.432C413.218 155.705 413.528 153.78 413.528 151.659C413.528 149.523 413.218 147.591 412.597 145.864C411.991 144.121 411.066 142.735 409.824 141.705C408.581 140.674 407.036 140.159 405.188 140.159C403.294 140.159 401.718 140.674 400.46 141.705C399.218 142.735 398.286 144.121 397.665 145.864C397.059 147.591 396.756 149.523 396.756 151.659C396.756 153.78 397.059 155.705 397.665 157.432C398.286 159.159 399.218 160.538 400.46 161.568C401.718 162.583 403.294 163.091 405.188 163.091ZM437.08 148.545V169H428.852V134.091H436.716V140.023H437.125C437.928 138.068 439.208 136.515 440.966 135.364C442.739 134.212 444.928 133.636 447.534 133.636C449.943 133.636 452.042 134.152 453.83 135.182C455.633 136.212 457.027 137.705 458.011 139.659C459.011 141.614 459.504 143.985 459.489 146.773V169H451.261V148.045C451.261 145.712 450.655 143.886 449.443 142.568C448.246 141.25 446.587 140.591 444.466 140.591C443.027 140.591 441.746 140.909 440.625 141.545C439.519 142.167 438.648 143.068 438.011 144.25C437.39 145.432 437.08 146.864 437.08 148.545ZM477.898 169.705C475.686 169.705 473.693 169.311 471.92 168.523C470.163 167.72 468.769 166.538 467.739 164.977C466.723 163.417 466.216 161.492 466.216 159.205C466.216 157.235 466.58 155.606 467.307 154.318C468.034 153.03 469.027 152 470.284 151.227C471.542 150.455 472.958 149.871 474.534 149.477C476.125 149.068 477.769 148.773 479.466 148.591C481.511 148.379 483.17 148.189 484.443 148.023C485.716 147.841 486.64 147.568 487.216 147.205C487.807 146.826 488.102 146.242 488.102 145.455V145.318C488.102 143.606 487.595 142.28 486.58 141.341C485.564 140.402 484.102 139.932 482.193 139.932C480.178 139.932 478.58 140.371 477.398 141.25C476.231 142.129 475.443 143.167 475.034 144.364L467.352 143.273C467.958 141.152 468.958 139.379 470.352 137.955C471.746 136.515 473.451 135.439 475.466 134.727C477.481 134 479.708 133.636 482.148 133.636C483.83 133.636 485.504 133.833 487.17 134.227C488.837 134.621 490.36 135.273 491.739 136.182C493.117 137.076 494.223 138.295 495.057 139.841C495.905 141.386 496.33 143.318 496.33 145.636V169H488.42V164.205H488.148C487.648 165.174 486.943 166.083 486.034 166.932C485.14 167.765 484.011 168.439 482.648 168.955C481.299 169.455 479.716 169.705 477.898 169.705ZM480.034 163.659C481.686 163.659 483.117 163.333 484.33 162.682C485.542 162.015 486.473 161.136 487.125 160.045C487.792 158.955 488.125 157.765 488.125 156.477V152.364C487.867 152.576 487.428 152.773 486.807 152.955C486.201 153.136 485.519 153.295 484.761 153.432C484.004 153.568 483.254 153.689 482.511 153.795C481.769 153.902 481.125 153.992 480.58 154.068C479.352 154.235 478.254 154.508 477.284 154.886C476.314 155.265 475.549 155.795 474.989 156.477C474.428 157.144 474.148 158.008 474.148 159.068C474.148 160.583 474.701 161.727 475.807 162.5C476.913 163.273 478.322 163.659 480.034 163.659ZM512.83 122.455V169H504.602V122.455H512.83ZM566.869 122.455H575.301V152.864C575.301 156.197 574.513 159.129 572.938 161.659C571.377 164.189 569.18 166.167 566.347 167.591C563.513 169 560.203 169.705 556.415 169.705C552.612 169.705 549.294 169 546.46 167.591C543.627 166.167 541.43 164.189 539.869 161.659C538.309 159.129 537.528 156.197 537.528 152.864V122.455H545.96V152.159C545.96 154.098 546.384 155.826 547.233 157.341C548.097 158.856 549.309 160.045 550.869 160.909C552.43 161.758 554.278 162.182 556.415 162.182C558.551 162.182 560.4 161.758 561.96 160.909C563.536 160.045 564.748 158.856 565.597 157.341C566.445 155.826 566.869 154.098 566.869 152.159V122.455ZM592.33 148.545V169H584.102V134.091H591.966V140.023H592.375C593.178 138.068 594.458 136.515 596.216 135.364C597.989 134.212 600.178 133.636 602.784 133.636C605.193 133.636 607.292 134.152 609.08 135.182C610.883 136.212 612.277 137.705 613.261 139.659C614.261 141.614 614.754 143.985 614.739 146.773V169H606.511V148.045C606.511 145.712 605.905 143.886 604.693 142.568C603.496 141.25 601.837 140.591 599.716 140.591C598.277 140.591 596.996 140.909 595.875 141.545C594.769 142.167 593.898 143.068 593.261 144.25C592.64 145.432 592.33 146.864 592.33 148.545ZM623.102 169V134.091H631.33V169H623.102ZM627.239 129.136C625.936 129.136 624.814 128.705 623.875 127.841C622.936 126.962 622.466 125.909 622.466 124.682C622.466 123.439 622.936 122.386 623.875 121.523C624.814 120.644 625.936 120.205 627.239 120.205C628.557 120.205 629.678 120.644 630.602 121.523C631.542 122.386 632.011 123.439 632.011 124.682C632.011 125.909 631.542 126.962 630.602 127.841C629.678 128.705 628.557 129.136 627.239 129.136ZM670.972 134.091L658.54 169H649.449L637.017 134.091H645.79L653.812 160.023H654.176L662.222 134.091H670.972ZM679.545 169.5C678.167 169.5 676.985 169.015 676 168.045C675.015 167.076 674.53 165.894 674.545 164.5C674.53 163.136 675.015 161.97 676 161C676.985 160.03 678.167 159.545 679.545 159.545C680.879 159.545 682.038 160.03 683.023 161C684.023 161.97 684.53 163.136 684.545 164.5C684.53 165.424 684.288 166.265 683.818 167.023C683.364 167.78 682.758 168.386 682 168.841C681.258 169.28 680.439 169.5 679.545 169.5Z" fill="#A9A9A9"/>
</svg>
